<?xml version="1.0" encoding="UTF-8"?>
<svg width="254px" height="92px" viewBox="0 0 254 92" version="1.1" xmlns="http://www.w3.org/2000/svg" xmlns:xlink="http://www.w3.org/1999/xlink">
    <!-- Generator: Sketch 48.2 (47327) - http://www.bohemiancoding.com/sketch -->
    <title>Logo Mark</title>
    <desc>Created with Sketch.</desc>
    <defs></defs>
    <g id="Symbols" stroke="none" stroke-width="1" fill="none" fill-rule="evenodd">
        <g id="Logo-Mark">
            <g id="Group">
                <g id="Logo-Mark" transform="translate(102.000000, 0.000000)">
                    <path d="M24,48 C10.745166,48 0,37.254834 0,24 C0,10.745166 10.745166,0 24,0 C37.254834,0 48,10.745166 48,24 C48,37.254834 37.254834,48 24,48 Z M24.96041,27.9477866 C24.9319985,28.1323851 25.0598505,28.2601842 25.23032,28.2601842 L26.9066025,28.2601842 C27.0486603,28.2601842 27.1623066,28.146585 27.1765124,28.0329859 L27.8015669,23.6452187 L27.8299784,23.6452187 L30.230756,28.2459843 C30.2733734,28.3311836 30.3870197,28.4021831 30.4722543,28.4021831 L30.7279585,28.4021831 C30.7989874,28.4021831 30.9268394,28.3311836 30.9694568,28.2459843 L33.3560285,23.6452187 L33.3844401,23.6452187 L34.0237004,28.0329859 C34.0379062,28.146585 34.1657582,28.2601842 34.2936103,28.2601842 L35.9698928,28.2601842 C36.1403623,28.2601842 36.2682143,28.1323851 36.2398028,27.9477866 L34.6345491,18.405458 C34.6203434,18.2776589 34.4924913,18.1782596 34.378845,18.1782596 L34.1515525,18.1782596 C34.0805235,18.1782596 33.9526715,18.2350592 33.9100541,18.3202586 L30.6143122,24.4546127 L30.5859006,24.4546127 L27.2901587,18.3202586 C27.2475413,18.2350592 27.1196893,18.1782596 27.0486603,18.1782596 L26.8213678,18.1782596 C26.7077215,18.1782596 26.5798694,18.2776589 26.5656637,18.405458 L24.96041,27.9477866 Z M24.0674804,15.0205326 L21.2600895,31.3476703 C21.2185588,31.5892033 21.3807739,31.8186577 21.622407,31.8601711 C21.8640401,31.9016846 22.0935898,31.7395369 22.1351205,31.4980039 L24.9425113,15.1708662 C24.9840421,14.9293333 24.821827,14.6998788 24.5801938,14.6583653 C24.3385607,14.6168518 24.1090111,14.7789997 24.0674804,15.0205326 Z M10.3433676,23.3044213 C10.3433676,26.1444 12.6020873,28.4021831 15.4432441,28.4021831 C18.284401,28.4021831 20.5573264,26.1444 20.5573264,23.3044213 C20.5573264,20.4644426 18.284401,18.1782596 15.4432441,18.1782596 C12.6020873,18.1782596 10.3433676,20.4644426 10.3433676,23.3044213 Z" id="Combined-Shape" fill="#9B59B6" fill-rule="nonzero"></path>
                    <path d="M13,24.015 C13,25.65 14.3533835,27 15.9924812,27 C17.6466165,27 19,25.65 19,24.015 C19,22.365 17.6466165,21 15.9924812,21 C14.3533835,21 13,22.365 13,24.015 Z" id="Path" fill="#FFFFFF" fill-rule="nonzero"></path>
                    <circle id="Oval" fill="#9B59B6" cx="24" cy="24" r="17"></circle>
                    <g id="Asset-1" transform="translate(4.000000, 4.000000)" fill="#FFFFFF" fill-rule="nonzero">
                        <path d="M20,0 C8.954305,-6.76353751e-16 1.3527075e-15,8.954305 0,20 C-1.3527075e-15,31.045695 8.954305,40 20,40 C31.045695,40 40,31.045695 40,20 C39.9878451,8.95934363 31.0406564,0.0121548621 20,0 Z M20,35.3501195 C13.789635,35.3501193 8.19085173,31.6088893 5.81459149,25.871118 C3.43833124,20.1333466 4.75261065,13.5291172 9.14452752,9.13825179 C13.5364444,4.74738637 20.1409883,3.43468829 25.8781905,5.81232229 C31.6153927,8.18995629 35.3552821,13.7896352 35.3537953,20 C35.3416434,28.4740331 28.4740357,35.3399966 20,35.3501195 Z" id="Shape"></path>
                        <path d="M20.1201717,7.2 L20,7.2 L20,19.2 L32.8,19.2 C32.7229739,12.5598259 27.0723455,7.21215567 20.1201717,7.2 Z" id="Shape"></path>
                    </g>
                </g>
                <text id="TimeSlice-Analytics" font-family="MuseoSlab-300, Museo Slab" font-size="26" font-weight="300" line-spacing="32" fill="#9B59B6">
                    <tspan x="3.838" y="78">TimeSlice Analytics</tspan>
                </text>
            </g>
        </g>
    </g>
</svg>